<svg width="100" height="100" viewBox="0 0 100 100" fill="none" xmlns="http://www.w3.org/2000/svg">
<circle cx="50" cy="50" r="50" fill="#4F7C92"/>
<path d="M28.0938 56H25.832V48.1133H17.2305V56H14.9805V38.9375H17.2305V46.2734H25.832V38.9375H28.0938V56ZM45.9273 40.7891H40.443V56H38.2047V40.7891H32.732V38.9375H45.9273V40.7891ZM53.7648 38.9375L59.343 52.8594L64.9211 38.9375H67.8391V56H65.5891V49.3555L65.8 42.1836L60.1984 56H58.4758L52.8859 42.2188L53.1086 49.3555V56H50.8586V38.9375H53.7648ZM76.4734 54.1602H84.5594V56H74.2117V38.9375H76.4734V54.1602Z" fill="#F8E1E1"/>
</svg>
