<svg width="100" height="100" viewBox="0 0 100 100" fill="none" xmlns="http://www.w3.org/2000/svg">
<circle cx="50" cy="50" r="50" fill="#4F7C92"/>
<path d="M39.6934 30.4062H43.0859V48.5293C43.0859 50.9785 42.3477 52.8945 40.8711 54.2773C39.4062 55.6602 37.4492 56.3516 35 56.3516C32.457 56.3516 30.4766 55.7012 29.0586 54.4004C27.6406 53.0996 26.9316 51.2773 26.9316 48.9336H30.3066C30.3066 50.3984 30.7051 51.541 31.502 52.3613C32.3105 53.1816 33.4766 53.5918 35 53.5918C36.3945 53.5918 37.5195 53.1523 38.375 52.2734C39.2422 51.3945 39.6816 50.1641 39.6934 48.582V30.4062ZM59.975 44.5918C57.0805 43.7598 54.9711 42.7402 53.6469 41.5332C52.3344 40.3145 51.6781 38.8145 51.6781 37.0332C51.6781 35.0176 52.4809 33.3535 54.0863 32.041C55.7035 30.7168 57.8012 30.0547 60.3793 30.0547C62.1371 30.0547 63.7016 30.3945 65.0727 31.0742C66.4555 31.7539 67.5219 32.6914 68.2719 33.8867C69.0336 35.082 69.4145 36.3887 69.4145 37.8066H66.0219C66.0219 36.2598 65.5297 35.0469 64.5453 34.168C63.5609 33.2773 62.1723 32.832 60.3793 32.832C58.7152 32.832 57.4145 33.2012 56.477 33.9395C55.5512 34.666 55.0883 35.6797 55.0883 36.9805C55.0883 38.0234 55.5277 38.9082 56.4066 39.6348C57.2973 40.3496 58.8031 41.0059 60.9242 41.6035C63.057 42.2012 64.7211 42.8633 65.9164 43.5898C67.1234 44.3047 68.0141 45.1426 68.5883 46.1035C69.1742 47.0645 69.4672 48.1953 69.4672 49.4961C69.4672 51.5703 68.6586 53.2344 67.0414 54.4883C65.4242 55.7305 63.2621 56.3516 60.5551 56.3516C58.7973 56.3516 57.1566 56.0176 55.6332 55.3496C54.1098 54.6699 52.932 53.7441 52.1 52.5723C51.2797 51.4004 50.8695 50.0703 50.8695 48.582H54.2621C54.2621 50.1289 54.8305 51.3535 55.9672 52.2559C57.1156 53.1465 58.6449 53.5918 60.5551 53.5918C62.3363 53.5918 63.7016 53.2285 64.6508 52.502C65.6 51.7754 66.0746 50.7852 66.0746 49.5312C66.0746 48.2773 65.6352 47.3105 64.7563 46.6309C63.8773 45.9395 62.2836 45.2598 59.975 44.5918Z" fill="#F2E8E8"/>
</svg>
