<svg width="100" height="100" viewBox="0 0 100 100" fill="none" xmlns="http://www.w3.org/2000/svg">
<circle cx="50" cy="50" r="50" fill="#4F7C92"/>
<path d="M39.5312 45.5859C39.3203 47.3906 38.6523 48.7852 37.5273 49.7695C36.4102 50.7461 34.9219 51.2344 33.0625 51.2344C31.0469 51.2344 29.4297 50.5117 28.2109 49.0664C27 47.6211 26.3945 45.6875 26.3945 43.2656V41.625C26.3945 40.0391 26.6758 38.6445 27.2383 37.4414C27.8086 36.2383 28.6133 35.3164 29.6523 34.6758C30.6914 34.0273 31.8945 33.7031 33.2617 33.7031C35.0742 33.7031 36.5273 34.2109 37.6211 35.2266C38.7148 36.2344 39.3516 37.6328 39.5312 39.4219H37.2695C37.0742 38.0625 36.6484 37.0781 35.9922 36.4688C35.3438 35.8594 34.4336 35.5547 33.2617 35.5547C31.8242 35.5547 30.6953 36.0859 29.875 37.1484C29.0625 38.2109 28.6562 39.7227 28.6562 41.6836V43.3359C28.6562 45.1875 29.043 46.6602 29.8164 47.7539C30.5898 48.8477 31.6719 49.3945 33.0625 49.3945C34.3125 49.3945 35.2695 49.1133 35.9336 48.5508C36.6055 47.9805 37.0508 46.9922 37.2695 45.5859H39.5312ZM50.0406 43.3945C48.1109 42.8398 46.7047 42.1602 45.8219 41.3555C44.9469 40.543 44.5094 39.543 44.5094 38.3555C44.5094 37.0117 45.0445 35.9023 46.1148 35.0273C47.193 34.1445 48.5914 33.7031 50.3102 33.7031C51.482 33.7031 52.525 33.9297 53.4391 34.3828C54.3609 34.8359 55.0719 35.4609 55.5719 36.2578C56.0797 37.0547 56.3336 37.9258 56.3336 38.8711H54.0719C54.0719 37.8398 53.7437 37.0312 53.0875 36.4453C52.4312 35.8516 51.5055 35.5547 50.3102 35.5547C49.2008 35.5547 48.3336 35.8008 47.7086 36.293C47.0914 36.7773 46.7828 37.4531 46.7828 38.3203C46.7828 39.0156 47.0758 39.6055 47.6617 40.0898C48.2555 40.5664 49.2594 41.0039 50.6734 41.4023C52.0953 41.8008 53.2047 42.2422 54.0016 42.7266C54.8062 43.2031 55.4 43.7617 55.7828 44.4023C56.1734 45.043 56.3687 45.7969 56.3687 46.6641C56.3687 48.0469 55.8297 49.1562 54.7516 49.9922C53.6734 50.8203 52.232 51.2344 50.4273 51.2344C49.2555 51.2344 48.1617 51.0117 47.1461 50.5664C46.1305 50.1133 45.3453 49.4961 44.7906 48.7148C44.2437 47.9336 43.9703 47.0469 43.9703 46.0547H46.232C46.232 47.0859 46.6109 47.9023 47.3687 48.5039C48.1344 49.0977 49.1539 49.3945 50.4273 49.3945C51.6148 49.3945 52.525 49.1523 53.1578 48.668C53.7906 48.1836 54.107 47.5234 54.107 46.6875C54.107 45.8516 53.8141 45.207 53.2281 44.7539C52.6422 44.293 51.5797 43.8398 50.0406 43.3945ZM66.6906 43.3945C64.7609 42.8398 63.3547 42.1602 62.4719 41.3555C61.5969 40.543 61.1594 39.543 61.1594 38.3555C61.1594 37.0117 61.6945 35.9023 62.7648 35.0273C63.843 34.1445 65.2414 33.7031 66.9602 33.7031C68.132 33.7031 69.175 33.9297 70.0891 34.3828C71.0109 34.8359 71.7219 35.4609 72.2219 36.2578C72.7297 37.0547 72.9836 37.9258 72.9836 38.8711H70.7219C70.7219 37.8398 70.3937 37.0312 69.7375 36.4453C69.0812 35.8516 68.1555 35.5547 66.9602 35.5547C65.8508 35.5547 64.9836 35.8008 64.3586 36.293C63.7414 36.7773 63.4328 37.4531 63.4328 38.3203C63.4328 39.0156 63.7258 39.6055 64.3117 40.0898C64.9055 40.5664 65.9094 41.0039 67.3234 41.4023C68.7453 41.8008 69.8547 42.2422 70.6516 42.7266C71.4562 43.2031 72.05 43.7617 72.4328 44.4023C72.8234 45.043 73.0187 45.7969 73.0187 46.6641C73.0187 48.0469 72.4797 49.1562 71.4016 49.9922C70.3234 50.8203 68.882 51.2344 67.0773 51.2344C65.9055 51.2344 64.8117 51.0117 63.7961 50.5664C62.7805 50.1133 61.9953 49.4961 61.4406 48.7148C60.8937 47.9336 60.6203 47.0469 60.6203 46.0547H62.882C62.882 47.0859 63.2609 47.9023 64.0187 48.5039C64.7844 49.0977 65.8039 49.3945 67.0773 49.3945C68.2648 49.3945 69.175 49.1523 69.8078 48.668C70.4406 48.1836 70.757 47.5234 70.757 46.6875C70.757 45.8516 70.4641 45.207 69.8781 44.7539C69.2922 44.293 68.2297 43.8398 66.6906 43.3945Z" fill="#FFF8F8"/>
</svg>
